<svg xmlns="http://www.w3.org/2000/svg" width="2200" height="1640" viewBox="0 0 2200 1640">
<rect width="2200" height="1640" fill="#F9FAFE"/>
<text x="1100" y="38" text-anchor="middle" font-size="20" font-weight="700" fill="#1A1A2E" font-family="Arial, Helvetica, sans-serif">OOP Neural Network Playground — UML Class Diagram</text>
<text x="1100" y="57" text-anchor="middle" font-size="11" fill="#556" font-family="Arial, Helvetica, sans-serif">Java Backend · Arrows: ——▷ Inheritance  --▷ Realization  ◆——> Composition  ◇——> Aggregation  ——> Association</text>
<rect x="580" y="70" width="28" height="17" rx="2" fill="#EBF2FA" stroke="#2E79B5" stroke-width="1.5" stroke-dasharray="5,3"/>
<text x="614" y="82" font-size="10" fill="#556" font-family="Arial, Helvetica, sans-serif">«interface»</text>
<rect x="718" y="70" width="28" height="17" rx="2" fill="#F4F4F4" stroke="#444444" stroke-width="1.5"/>
<text x="752" y="82" font-size="10" fill="#556" font-family="Arial, Helvetica, sans-serif">«abstract»</text>
<rect x="856" y="70" width="28" height="17" rx="2" fill="#FFFFFF" stroke="#333333" stroke-width="1.5"/>
<text x="890" y="82" font-size="10" fill="#556" font-family="Arial, Helvetica, sans-serif">Concrete class</text>
<rect x="994" y="70" width="28" height="17" rx="2" fill="#EBEBEB" stroke="#999999" stroke-width="1.5" stroke-dasharray="4,4"/>
<text x="1028" y="82" font-size="10" fill="#556" font-family="Arial, Helvetica, sans-serif">External (JDK)</text>
<rect x="20" y="90" width="1215" height="610" rx="6" fill="#F7F8FD" stroke="#C5C8DF" stroke-width="1"/>
<text x="627" y="108" text-anchor="middle" font-size="12" font-weight="700" fill="#556" font-family="Arial, Helvetica, sans-serif">Function Hierarchies</text>
<rect x="500" y="120" width="220" height="98" rx="2" fill="#EBF2FA" stroke="#2E79B5" stroke-width="1.5" stroke-dasharray="5,3"/>
<line x1="500" y1="162" x2="720" y2="162" stroke="#2E79B5" stroke-width="1"/>
<line x1="500" y1="180" x2="720" y2="180" stroke="#2E79B5" stroke-width="1"/>
<rect x="1035" y="120" width="195" height="98" rx="2" fill="#EBF2FA" stroke="#2E79B5" stroke-width="1.5" stroke-dasharray="5,3"/>
<line x1="1035" y1="162" x2="1230" y2="162" stroke="#2E79B5" stroke-width="1"/>
<line x1="1035" y1="180" x2="1230" y2="180" stroke="#2E79B5" stroke-width="1"/>
<rect x="188" y="305" width="220" height="118" rx="2" fill="#F4F4F4" stroke="#444444" stroke-width="1.5"/>
<line x1="188" y1="347" x2="408" y2="347" stroke="#444444" stroke-width="1"/>
<line x1="188" y1="370" x2="408" y2="370" stroke="#444444" stroke-width="1"/>
<rect x="780" y="305" width="240" height="133" rx="2" fill="#F4F4F4" stroke="#444444" stroke-width="1.5"/>
<line x1="780" y1="347" x2="1020" y2="347" stroke="#444444" stroke-width="1"/>
<line x1="780" y1="370" x2="1020" y2="370" stroke="#444444" stroke-width="1"/>
<rect x="1035" y="305" width="195" height="89" rx="2" fill="#FFFFFF" stroke="#333333" stroke-width="1.5"/>
<line x1="1035" y1="333" x2="1230" y2="333" stroke="#333333" stroke-width="1"/>
<line x1="1035" y1="356" x2="1230" y2="356" stroke="#333333" stroke-width="1"/>
<rect x="28" y="490" width="188" height="84" rx="2" fill="#FFFFFF" stroke="#333333" stroke-width="1.5"/>
<line x1="28" y1="518" x2="216" y2="518" stroke="#333333" stroke-width="1"/>
<line x1="28" y1="536" x2="216" y2="536" stroke="#333333" stroke-width="1"/>
<rect x="230" y="490" width="188" height="84" rx="2" fill="#FFFFFF" stroke="#333333" stroke-width="1.5"/>
<line x1="230" y1="518" x2="418" y2="518" stroke="#333333" stroke-width="1"/>
<line x1="230" y1="536" x2="418" y2="536" stroke="#333333" stroke-width="1"/>
<rect x="28" y="585" width="192" height="84" rx="2" fill="#FFFFFF" stroke="#333333" stroke-width="1.5"/>
<line x1="28" y1="613" x2="220" y2="613" stroke="#333333" stroke-width="1"/>
<line x1="28" y1="631" x2="220" y2="631" stroke="#333333" stroke-width="1"/>
<rect x="234" y="585" width="188" height="84" rx="2" fill="#FFFFFF" stroke="#333333" stroke-width="1.5"/>
<line x1="234" y1="613" x2="422" y2="613" stroke="#333333" stroke-width="1"/>
<line x1="234" y1="631" x2="422" y2="631" stroke="#333333" stroke-width="1"/>
<rect x="748" y="510" width="162" height="84" rx="2" fill="#FFFFFF" stroke="#333333" stroke-width="1.5"/>
<line x1="748" y1="538" x2="910" y2="538" stroke="#333333" stroke-width="1"/>
<line x1="748" y1="556" x2="910" y2="556" stroke="#333333" stroke-width="1"/>
<rect x="921" y="510" width="175" height="99" rx="2" fill="#FFFFFF" stroke="#333333" stroke-width="1.5"/>
<line x1="921" y1="538" x2="1096" y2="538" stroke="#333333" stroke-width="1"/>
<line x1="921" y1="556" x2="1096" y2="556" stroke="#333333" stroke-width="1"/>
<rect x="1107" y="510" width="162" height="84" rx="2" fill="#FFFFFF" stroke="#333333" stroke-width="1.5"/>
<line x1="1107" y1="538" x2="1269" y2="538" stroke="#333333" stroke-width="1"/>
<line x1="1107" y1="556" x2="1269" y2="556" stroke="#333333" stroke-width="1"/>
<rect x="1252" y="90" width="490" height="610" rx="6" fill="#F7F8FD" stroke="#C5C8DF" stroke-width="1"/>
<text x="1497" y="108" text-anchor="middle" font-size="12" font-weight="700" fill="#556" font-family="Arial, Helvetica, sans-serif">Exception Hierarchy</text>
<rect x="1345" y="120" width="192" height="64" rx="2" fill="#EBEBEB" stroke="#999999" stroke-width="1.5" stroke-dasharray="4,4"/>
<line x1="1345" y1="148" x2="1537" y2="148" stroke="#999999" stroke-width="1"/>
<line x1="1345" y1="166" x2="1537" y2="166" stroke="#999999" stroke-width="1"/>
<rect x="1340" y="248" width="205" height="88" rx="2" fill="#F4F4F4" stroke="#444444" stroke-width="1.5"/>
<line x1="1340" y1="290" x2="1545" y2="290" stroke="#444444" stroke-width="1"/>
<line x1="1340" y1="313" x2="1545" y2="313" stroke="#444444" stroke-width="1"/>
<rect x="1258" y="410" width="155" height="84" rx="2" fill="#FFFFFF" stroke="#333333" stroke-width="1.5"/>
<line x1="1258" y1="438" x2="1413" y2="438" stroke="#333333" stroke-width="1"/>
<line x1="1258" y1="456" x2="1413" y2="456" stroke="#333333" stroke-width="1"/>
<rect x="1424" y="410" width="150" height="84" rx="2" fill="#FFFFFF" stroke="#333333" stroke-width="1.5"/>
<line x1="1424" y1="438" x2="1574" y2="438" stroke="#333333" stroke-width="1"/>
<line x1="1424" y1="456" x2="1574" y2="456" stroke="#333333" stroke-width="1"/>
<rect x="1588" y="410" width="148" height="84" rx="2" fill="#FFFFFF" stroke="#333333" stroke-width="1.5"/>
<line x1="1588" y1="438" x2="1736" y2="438" stroke="#333333" stroke-width="1"/>
<line x1="1588" y1="456" x2="1736" y2="456" stroke="#333333" stroke-width="1"/>
<rect x="1575" y="526" width="168" height="84" rx="2" fill="#FFFFFF" stroke="#333333" stroke-width="1.5"/>
<line x1="1575" y1="554" x2="1743" y2="554" stroke="#333333" stroke-width="1"/>
<line x1="1575" y1="572" x2="1743" y2="572" stroke="#333333" stroke-width="1"/>
<rect x="1760" y="90" width="418" height="610" rx="6" fill="#F7F8FD" stroke="#C5C8DF" stroke-width="1"/>
<text x="1969" y="108" text-anchor="middle" font-size="12" font-weight="700" fill="#556" font-family="Arial, Helvetica, sans-serif">Dataset Generators</text>
<rect x="1768" y="120" width="208" height="143" rx="2" fill="#F4F4F4" stroke="#444444" stroke-width="1.5"/>
<line x1="1768" y1="162" x2="1976" y2="162" stroke="#444444" stroke-width="1"/>
<line x1="1768" y1="180" x2="1976" y2="180" stroke="#444444" stroke-width="1"/>
<rect x="1768" y="345" width="188" height="69" rx="2" fill="#FFFFFF" stroke="#333333" stroke-width="1.5"/>
<line x1="1768" y1="373" x2="1956" y2="373" stroke="#333333" stroke-width="1"/>
<line x1="1768" y1="391" x2="1956" y2="391" stroke="#333333" stroke-width="1"/>
<rect x="1768" y="398" width="170" height="69" rx="2" fill="#FFFFFF" stroke="#333333" stroke-width="1.5"/>
<line x1="1768" y1="426" x2="1938" y2="426" stroke="#333333" stroke-width="1"/>
<line x1="1768" y1="444" x2="1938" y2="444" stroke="#333333" stroke-width="1"/>
<rect x="1768" y="451" width="195" height="69" rx="2" fill="#FFFFFF" stroke="#333333" stroke-width="1.5"/>
<line x1="1768" y1="479" x2="1963" y2="479" stroke="#333333" stroke-width="1"/>
<line x1="1768" y1="497" x2="1963" y2="497" stroke="#333333" stroke-width="1"/>
<rect x="1768" y="504" width="178" height="69" rx="2" fill="#FFFFFF" stroke="#333333" stroke-width="1.5"/>
<line x1="1768" y1="532" x2="1946" y2="532" stroke="#333333" stroke-width="1"/>
<line x1="1768" y1="550" x2="1946" y2="550" stroke="#333333" stroke-width="1"/>
<rect x="1768" y="557" width="200" height="69" rx="2" fill="#FFFFFF" stroke="#333333" stroke-width="1.5"/>
<line x1="1768" y1="585" x2="1968" y2="585" stroke="#333333" stroke-width="1"/>
<line x1="1768" y1="603" x2="1968" y2="603" stroke="#333333" stroke-width="1"/>
<rect x="1768" y="610" width="210" height="69" rx="2" fill="#FFFFFF" stroke="#333333" stroke-width="1.5"/>
<line x1="1768" y1="638" x2="1978" y2="638" stroke="#333333" stroke-width="1"/>
<line x1="1768" y1="656" x2="1978" y2="656" stroke="#333333" stroke-width="1"/>
<rect x="20" y="740" width="870" height="430" rx="6" fill="#F7F8FD" stroke="#C5C8DF" stroke-width="1"/>
<text x="455" y="758" text-anchor="middle" font-size="12" font-weight="700" fill="#556" font-family="Arial, Helvetica, sans-serif">Neural Network Core</text>
<rect x="32" y="772" width="248" height="179" rx="2" fill="#FFFFFF" stroke="#333333" stroke-width="1.5"/>
<line x1="32" y1="800" x2="280" y2="800" stroke="#333333" stroke-width="1"/>
<line x1="32" y1="868" x2="280" y2="868" stroke="#333333" stroke-width="1"/>
<rect x="302" y="772" width="252" height="164" rx="2" fill="#FFFFFF" stroke="#333333" stroke-width="1.5"/>
<line x1="302" y1="800" x2="554" y2="800" stroke="#333333" stroke-width="1"/>
<line x1="302" y1="853" x2="554" y2="853" stroke="#333333" stroke-width="1"/>
<rect x="578" y="772" width="298" height="159" rx="2" fill="#FFFFFF" stroke="#333333" stroke-width="1.5"/>
<line x1="578" y1="800" x2="876" y2="800" stroke="#333333" stroke-width="1"/>
<line x1="578" y1="818" x2="876" y2="818" stroke="#333333" stroke-width="1"/>
<rect x="910" y="740" width="1268" height="430" rx="6" fill="#F7F8FD" stroke="#C5C8DF" stroke-width="1"/>
<text x="1544" y="758" text-anchor="middle" font-size="12" font-weight="700" fill="#556" font-family="Arial, Helvetica, sans-serif">API Layer</text>
<rect x="920" y="772" width="185" height="143" rx="2" fill="#EBF2FA" stroke="#2E79B5" stroke-width="1.5" stroke-dasharray="5,3"/>
<line x1="920" y1="814" x2="1105" y2="814" stroke="#2E79B5" stroke-width="1"/>
<line x1="920" y1="832" x2="1105" y2="832" stroke="#2E79B5" stroke-width="1"/>
<rect x="920" y="990" width="258" height="194" rx="2" fill="#FFFFFF" stroke="#333333" stroke-width="1.5"/>
<line x1="920" y1="1018" x2="1178" y2="1018" stroke="#333333" stroke-width="1"/>
<line x1="920" y1="1116" x2="1178" y2="1116" stroke="#333333" stroke-width="1"/>
<rect x="1215" y="772" width="238" height="119" rx="2" fill="#FFFFFF" stroke="#333333" stroke-width="1.5"/>
<line x1="1215" y1="800" x2="1453" y2="800" stroke="#333333" stroke-width="1"/>
<line x1="1215" y1="823" x2="1453" y2="823" stroke="#333333" stroke-width="1"/>
<rect x="1490" y="772" width="218" height="104" rx="2" fill="#FFFFFF" stroke="#333333" stroke-width="1.5"/>
<line x1="1490" y1="800" x2="1708" y2="800" stroke="#333333" stroke-width="1"/>
<line x1="1490" y1="838" x2="1708" y2="838" stroke="#333333" stroke-width="1"/>
<rect x="1745" y="772" width="258" height="119" rx="2" fill="#FFFFFF" stroke="#333333" stroke-width="1.5"/>
<line x1="1745" y1="800" x2="2003" y2="800" stroke="#333333" stroke-width="1"/>
<line x1="1745" y1="823" x2="2003" y2="823" stroke="#333333" stroke-width="1"/>
<polygon points="610,218 602,232 618,232" fill="white" stroke="#333333" stroke-width="1.5"/>
<polyline points="610,232 610,268 298,268 298,305" fill="none" stroke="#333333" stroke-width="1.5" stroke-dasharray="5,3"/>
<polygon points="610,218 602,232 618,232" fill="white" stroke="#333333" stroke-width="1.5"/>
<polyline points="610,232 610,268 900,268 900,305" fill="none" stroke="#333333" stroke-width="1.5" stroke-dasharray="5,3"/>
<polygon points="1132,218 1124,232 1140,232" fill="white" stroke="#333333" stroke-width="1.5"/>
<line x1="1132" y1="232" x2="1132" y2="305" stroke="#333333" stroke-width="1.5" stroke-dasharray="5,3"/>
<polygon points="298,423 290,437 306,437" fill="white" stroke="#333333" stroke-width="1.5"/>
<line x1="298" y1="437" x2="122" y2="490" stroke="#333333" stroke-width="1.5"/>
<line x1="298" y1="437" x2="324" y2="490" stroke="#333333" stroke-width="1.5"/>
<line x1="298" y1="437" x2="124" y2="585" stroke="#333333" stroke-width="1.5"/>
<line x1="298" y1="437" x2="328" y2="585" stroke="#333333" stroke-width="1.5"/>
<polygon points="900,438 892,452 908,452" fill="white" stroke="#333333" stroke-width="1.5"/>
<line x1="900" y1="452" x2="900" y2="468" stroke="#333333" stroke-width="1.5"/>
<line x1="829" y1="468" x2="1188" y2="468" stroke="#333333" stroke-width="1.5"/>
<line x1="829" y1="468" x2="829" y2="510" stroke="#333333" stroke-width="1.5"/>
<line x1="1008" y1="468" x2="1008" y2="510" stroke="#333333" stroke-width="1.5"/>
<line x1="1188" y1="468" x2="1188" y2="510" stroke="#333333" stroke-width="1.5"/>
<polygon points="1441,184 1433,198 1449,198" fill="white" stroke="#333333" stroke-width="1.5"/>
<line x1="1441" y1="198" x2="1442" y2="248" stroke="#333333" stroke-width="1.5"/>
<polygon points="1442,336 1434,350 1450,350" fill="white" stroke="#333333" stroke-width="1.5"/>
<line x1="1442" y1="350" x2="1442" y2="366" stroke="#333333" stroke-width="1.5"/>
<line x1="1335" y1="366" x2="1662" y2="366" stroke="#333333" stroke-width="1.5"/>
<line x1="1335" y1="366" x2="1335" y2="410" stroke="#333333" stroke-width="1.5"/>
<line x1="1499" y1="366" x2="1499" y2="410" stroke="#333333" stroke-width="1.5"/>
<line x1="1662" y1="366" x2="1662" y2="410" stroke="#333333" stroke-width="1.5"/>
<polygon points="1662,494 1654,508 1670,508" fill="white" stroke="#333333" stroke-width="1.5"/>
<polyline points="1662,508 1662,517 1659,517 1659,526" fill="none" stroke="#333333" stroke-width="1.5"/>
<polygon points="1872,263 1864,277 1880,277" fill="white" stroke="#333333" stroke-width="1.5"/>
<line x1="1872" y1="277" x2="1872" y2="293" stroke="#333333" stroke-width="1.5"/>
<line x1="1853" y1="293" x2="1873" y2="293" stroke="#333333" stroke-width="1.5"/>
<line x1="1862" y1="293" x2="1862" y2="345" stroke="#333333" stroke-width="1.5"/>
<line x1="1853" y1="293" x2="1853" y2="398" stroke="#333333" stroke-width="1.5"/>
<line x1="1865" y1="293" x2="1865" y2="451" stroke="#333333" stroke-width="1.5"/>
<line x1="1857" y1="293" x2="1857" y2="504" stroke="#333333" stroke-width="1.5"/>
<line x1="1868" y1="293" x2="1868" y2="557" stroke="#333333" stroke-width="1.5"/>
<line x1="1873" y1="293" x2="1873" y2="610" stroke="#333333" stroke-width="1.5"/>
<polygon points="280,861 266,853 252,861 266,869" fill="#333333" stroke="#333333" stroke-width="1"/>
<polyline points="252,861 272,861 272,854 292,854" fill="none" stroke="#333333" stroke-width="1.5"/>
<polyline points="312,848 302,854 312,860" fill="none" stroke="#333333" stroke-width="1.5"/>
<text x="250" y="855" text-anchor="end" font-size="10" fill="#556" font-family="Arial, Helvetica, sans-serif">1</text>
<text x="306" y="848" text-anchor="start" font-size="10" fill="#556" font-family="Arial, Helvetica, sans-serif">0..*</text>
<polyline points="554,854 561,854 561,851 568,851" fill="none" stroke="#333333" stroke-width="1.5"/>
<polyline points="588,845 578,851 588,857" fill="none" stroke="#333333" stroke-width="1.5"/>
<text x="558" y="849" text-anchor="start" font-size="10" fill="#556" font-family="Arial, Helvetica, sans-serif">0..*</text>
<text x="574" y="846" text-anchor="end" font-size="10" fill="#556" font-family="Arial, Helvetica, sans-serif">1..*</text>
<polygon points="1012,915 1004,929 1020,929" fill="white" stroke="#333333" stroke-width="1.5"/>
<polyline points="1012,929 1012,959 1049,959 1049,990" fill="none" stroke="#333333" stroke-width="1.5" stroke-dasharray="5,3"/>
<polygon points="1334,891 1326,877 1334,863 1342,877" fill="white" stroke="#333333" stroke-width="1.5"/>
<polyline points="1334,863 1334,931 1049,931 1049,1000" fill="none" stroke="#333333" stroke-width="1.5"/>
<polyline points="1043,1000 1049,990 1055,1000" fill="none" stroke="#333333" stroke-width="1.5"/>
<text x="1344" y="859" text-anchor="start" font-size="10" fill="#556" font-family="Arial, Helvetica, sans-serif">1</text>
<text x="1059" y="1002" text-anchor="start" font-size="10" fill="#556" font-family="Arial, Helvetica, sans-serif">0..*</text>
<polyline points="1708,824 1721,824 1721,831 1735,831" fill="none" stroke="#333333" stroke-width="1.5"/>
<polyline points="1755,825 1745,831 1755,837" fill="none" stroke="#333333" stroke-width="1.5"/>
<text x="1712" y="819" text-anchor="start" font-size="10" fill="#556" font-family="Arial, Helvetica, sans-serif">1</text>
<text x="1741" y="826" text-anchor="end" font-size="10" fill="#556" font-family="Arial, Helvetica, sans-serif">1</text>
<polygon points="1178,1087 1164,1079 1150,1087 1164,1095" fill="#333333" stroke="#333333" stroke-width="1"/>
<polyline points="1150,1087 1130,1087 1130,752 216,752 216,762" fill="none" stroke="#333333" stroke-width="1.5"/>
<polyline points="210,782 216,772 222,782" fill="none" stroke="#333333" stroke-width="1.5"/>
<text x="1126" y="1081" text-anchor="end" font-size="10" fill="#556" font-family="Arial, Helvetica, sans-serif">1</text>
<text x="221" y="782" text-anchor="start" font-size="10" fill="#556" font-family="Arial, Helvetica, sans-serif">0..*</text>
<text x="673" y="744" text-anchor="middle" font-size="9" fill="#556" font-family="Arial, Helvetica, sans-serif">◆ Session owns network nodes</text>
<text x="610" y="134" text-anchor="middle" font-size="9" font-style="italic" fill="#2E79B5" font-family="Arial, Helvetica, sans-serif">«interface»</text>
<text x="610" y="150" text-anchor="middle" font-size="11" font-weight="700" font-style="normal" fill="#111111" font-family="Arial, Helvetica, sans-serif">DifferentiableFunction</text>
<text x="506" y="195" font-size="9.5" fill="#111111" font-family="Courier New, Courier, monospace">+ output(x : double) : double</text>
<text x="506" y="210" font-size="9.5" fill="#111111" font-family="Courier New, Courier, monospace">+ derivative(x : double) : double</text>
<text x="1132" y="134" text-anchor="middle" font-size="9" font-style="italic" fill="#2E79B5" font-family="Arial, Helvetica, sans-serif">«interface»</text>
<text x="1132" y="150" text-anchor="middle" font-size="11" font-weight="700" font-style="normal" fill="#111111" font-family="Arial, Helvetica, sans-serif">ErrorFunction</text>
<text x="1041" y="195" font-size="9.5" fill="#111111" font-family="Courier New, Courier, monospace">+ error(out, tgt : double) : double</text>
<text x="1041" y="210" font-size="9.5" fill="#111111" font-family="Courier New, Courier, monospace">+ derivative(out, tgt : double) : double</text>
<text x="298" y="319" text-anchor="middle" font-size="9" font-style="italic" fill="#556" font-family="Arial, Helvetica, sans-serif">«abstract»</text>
<text x="298" y="335" text-anchor="middle" font-size="11" font-weight="700" font-style="italic" fill="#111111" font-family="Arial, Helvetica, sans-serif">ActivationFunction</text>
<text x="194" y="362" font-size="9.5" fill="#111111" font-family="Courier New, Courier, monospace">- name : String</text>
<text x="194" y="385" font-size="9.5" fill="#111111" font-family="Courier New, Courier, monospace">+ getName() : String</text>
<text x="194" y="400" font-size="9.5" fill="#111111" font-family="Courier New, Courier, monospace">+ output(x : double) : double</text>
<text x="194" y="415" font-size="9.5" fill="#111111" font-family="Courier New, Courier, monospace">+ derivative(x : double) : double</text>
<text x="900" y="319" text-anchor="middle" font-size="9" font-style="italic" fill="#556" font-family="Arial, Helvetica, sans-serif">«abstract»</text>
<text x="900" y="335" text-anchor="middle" font-size="11" font-weight="700" font-style="italic" fill="#111111" font-family="Arial, Helvetica, sans-serif">RegularizationFunction</text>
<text x="786" y="362" font-size="9.5" fill="#111111" font-family="Courier New, Courier, monospace">- name : String</text>
<text x="786" y="385" font-size="9.5" fill="#111111" font-family="Courier New, Courier, monospace">+ getName() : String</text>
<text x="786" y="400" font-size="9.5" fill="#111111" font-family="Courier New, Courier, monospace">+ output(w : double) : double</text>
<text x="786" y="415" font-size="9.5" fill="#111111" font-family="Courier New, Courier, monospace">+ derivative(w : double) : double</text>
<text x="786" y="430" font-size="9.5" fill="#111111" font-family="Courier New, Courier, monospace">+ crossesZero(o,n : double) : bool</text>
<text x="1132" y="323" text-anchor="middle" font-size="11" font-weight="700" fill="#111111" font-family="Arial, Helvetica, sans-serif">SquaredError</text>
<text x="1041" y="348" font-size="9.5" fill="#111111" font-family="Courier New, Courier, monospace">+ INSTANCE : SquaredError</text>
<text x="1041" y="371" font-size="9.5" fill="#111111" font-family="Courier New, Courier, monospace">+ error(out, tgt : double) : double</text>
<text x="1041" y="386" font-size="9.5" fill="#111111" font-family="Courier New, Courier, monospace">+ derivative(out, tgt : double) : double</text>
<text x="122" y="508" text-anchor="middle" font-size="11" font-weight="700" fill="#111111" font-family="Arial, Helvetica, sans-serif">TanhActivation</text>
<text x="34" y="551" font-size="9.5" fill="#111111" font-family="Courier New, Courier, monospace">+ output(x : double) : double</text>
<text x="34" y="566" font-size="9.5" fill="#111111" font-family="Courier New, Courier, monospace">+ derivative(x : double) : double</text>
<text x="324" y="508" text-anchor="middle" font-size="11" font-weight="700" fill="#111111" font-family="Arial, Helvetica, sans-serif">ReluActivation</text>
<text x="236" y="551" font-size="9.5" fill="#111111" font-family="Courier New, Courier, monospace">+ output(x : double) : double</text>
<text x="236" y="566" font-size="9.5" fill="#111111" font-family="Courier New, Courier, monospace">+ derivative(x : double) : double</text>
<text x="124" y="603" text-anchor="middle" font-size="11" font-weight="700" fill="#111111" font-family="Arial, Helvetica, sans-serif">SigmoidActivation</text>
<text x="34" y="646" font-size="9.5" fill="#111111" font-family="Courier New, Courier, monospace">+ output(x : double) : double</text>
<text x="34" y="661" font-size="9.5" fill="#111111" font-family="Courier New, Courier, monospace">+ derivative(x : double) : double</text>
<text x="328" y="603" text-anchor="middle" font-size="11" font-weight="700" fill="#111111" font-family="Arial, Helvetica, sans-serif">LinearActivation</text>
<text x="240" y="646" font-size="9.5" fill="#111111" font-family="Courier New, Courier, monospace">+ output(x : double) : double</text>
<text x="240" y="661" font-size="9.5" fill="#111111" font-family="Courier New, Courier, monospace">+ derivative(x : double) : double</text>
<text x="829" y="528" text-anchor="middle" font-size="11" font-weight="700" fill="#111111" font-family="Arial, Helvetica, sans-serif">NoRegularization</text>
<text x="754" y="571" font-size="9.5" fill="#111111" font-family="Courier New, Courier, monospace">+ output(w : double) : double</text>
<text x="754" y="586" font-size="9.5" fill="#111111" font-family="Courier New, Courier, monospace">+ derivative(w : double) : double</text>
<text x="1008" y="528" text-anchor="middle" font-size="11" font-weight="700" fill="#111111" font-family="Arial, Helvetica, sans-serif">L1Regularization</text>
<text x="927" y="571" font-size="9.5" fill="#111111" font-family="Courier New, Courier, monospace">+ output(w : double) : double</text>
<text x="927" y="586" font-size="9.5" fill="#111111" font-family="Courier New, Courier, monospace">+ derivative(w : double) : double</text>
<text x="927" y="601" font-size="9.5" fill="#111111" font-family="Courier New, Courier, monospace">+ crossesZero(o,n:double):bool</text>
<text x="1188" y="528" text-anchor="middle" font-size="11" font-weight="700" fill="#111111" font-family="Arial, Helvetica, sans-serif">L2Regularization</text>
<text x="1113" y="571" font-size="9.5" fill="#111111" font-family="Courier New, Courier, monospace">+ output(w : double) : double</text>
<text x="1113" y="586" font-size="9.5" fill="#111111" font-family="Courier New, Courier, monospace">+ derivative(w : double) : double</text>
<text x="1441" y="138" text-anchor="middle" font-size="11" font-weight="700" fill="#111111" font-family="Arial, Helvetica, sans-serif">RuntimeException</text>
<text x="1442" y="262" text-anchor="middle" font-size="9" font-style="italic" fill="#556" font-family="Arial, Helvetica, sans-serif">«abstract»</text>
<text x="1442" y="278" text-anchor="middle" font-size="11" font-weight="700" font-style="italic" fill="#111111" font-family="Arial, Helvetica, sans-serif">PlaygroundException</text>
<text x="1346" y="305" font-size="9.5" fill="#111111" font-family="Courier New, Courier, monospace">- httpStatus : int</text>
<text x="1346" y="328" font-size="9.5" fill="#111111" font-family="Courier New, Courier, monospace">+ getHttpStatus() : int</text>
<text x="1335" y="428" text-anchor="middle" font-size="11" font-weight="700" fill="#111111" font-family="Arial, Helvetica, sans-serif">ConfigurationException</text>
<text x="1264" y="471" font-size="9.5" fill="#111111" font-family="Courier New, Courier, monospace"># ConfigurationException</text>
<text x="1264" y="486" font-size="9.5" fill="#111111" font-family="Courier New, Courier, monospace">  (msg : String) — HTTP 400</text>
<text x="1499" y="428" text-anchor="middle" font-size="11" font-weight="700" fill="#111111" font-family="Arial, Helvetica, sans-serif">TrainingException</text>
<text x="1430" y="471" font-size="9.5" fill="#111111" font-family="Courier New, Courier, monospace"># TrainingException</text>
<text x="1430" y="486" font-size="9.5" fill="#111111" font-family="Courier New, Courier, monospace">  (msg : String) — HTTP 500</text>
<text x="1662" y="428" text-anchor="middle" font-size="11" font-weight="700" fill="#111111" font-family="Arial, Helvetica, sans-serif">NotFoundException</text>
<text x="1594" y="471" font-size="9.5" fill="#111111" font-family="Courier New, Courier, monospace"># NotFoundException</text>
<text x="1594" y="486" font-size="9.5" fill="#111111" font-family="Courier New, Courier, monospace">  (msg : String) — HTTP 404</text>
<text x="1659" y="544" text-anchor="middle" font-size="11" font-weight="700" fill="#111111" font-family="Arial, Helvetica, sans-serif">SessionNotFoundException</text>
<text x="1581" y="587" font-size="9.5" fill="#111111" font-family="Courier New, Courier, monospace"># SessionNotFoundException</text>
<text x="1581" y="602" font-size="9.5" fill="#111111" font-family="Courier New, Courier, monospace">  (id : String) — HTTP 404</text>
<text x="1872" y="134" text-anchor="middle" font-size="9" font-style="italic" fill="#556" font-family="Arial, Helvetica, sans-serif">«abstract»</text>
<text x="1872" y="150" text-anchor="middle" font-size="11" font-weight="700" font-style="italic" fill="#111111" font-family="Arial, Helvetica, sans-serif">DataGenerator</text>
<text x="1774" y="195" font-size="9.5" fill="#111111" font-family="Courier New, Courier, monospace">+ generate(n : int,</text>
<text x="1774" y="210" font-size="9.5" fill="#111111" font-family="Courier New, Courier, monospace">  noise : double,</text>
<text x="1774" y="225" font-size="9.5" fill="#111111" font-family="Courier New, Courier, monospace">  rng : Random) : List</text>
<text x="1774" y="240" font-size="9.5" fill="#111111" font-family="Courier New, Courier, monospace">+ getKey() : String</text>
<text x="1774" y="255" font-size="9.5" fill="#111111" font-family="Courier New, Courier, monospace">+ isRegression() : boolean</text>
<text x="1862" y="363" text-anchor="middle" font-size="11" font-weight="700" fill="#111111" font-family="Arial, Helvetica, sans-serif">CircleDataset</text>
<text x="1774" y="406" font-size="9.5" fill="#111111" font-family="Courier New, Courier, monospace">+ generate(...) : List</text>
<text x="1853" y="416" text-anchor="middle" font-size="11" font-weight="700" fill="#111111" font-family="Arial, Helvetica, sans-serif">XorDataset</text>
<text x="1774" y="459" font-size="9.5" fill="#111111" font-family="Courier New, Courier, monospace">+ generate(...) : List</text>
<text x="1865" y="469" text-anchor="middle" font-size="11" font-weight="700" fill="#111111" font-family="Arial, Helvetica, sans-serif">GaussianDataset</text>
<text x="1774" y="512" font-size="9.5" fill="#111111" font-family="Courier New, Courier, monospace">+ generate(...) : List</text>
<text x="1857" y="522" text-anchor="middle" font-size="11" font-weight="700" fill="#111111" font-family="Arial, Helvetica, sans-serif">SpiralDataset</text>
<text x="1774" y="565" font-size="9.5" fill="#111111" font-family="Courier New, Courier, monospace">+ generate(...) : List</text>
<text x="1868" y="575" text-anchor="middle" font-size="11" font-weight="700" fill="#111111" font-family="Arial, Helvetica, sans-serif">PlaneRegressionDataset</text>
<text x="1774" y="618" font-size="9.5" fill="#111111" font-family="Courier New, Courier, monospace">+ generate(...) : List</text>
<text x="1873" y="628" text-anchor="middle" font-size="11" font-weight="700" fill="#111111" font-family="Arial, Helvetica, sans-serif">GaussianRegressionDataset</text>
<text x="1774" y="671" font-size="9.5" fill="#111111" font-family="Courier New, Courier, monospace">+ generate(...) : List</text>
<text x="156" y="790" text-anchor="middle" font-size="11" font-weight="700" fill="#111111" font-family="Arial, Helvetica, sans-serif">Node</text>
<text x="38" y="815" font-size="9.5" fill="#111111" font-family="Courier New, Courier, monospace">- id : String</text>
<text x="38" y="830" font-size="9.5" fill="#111111" font-family="Courier New, Courier, monospace">- bias : double</text>
<text x="38" y="845" font-size="9.5" fill="#111111" font-family="Courier New, Courier, monospace">- output : double</text>
<text x="38" y="860" font-size="9.5" fill="#111111" font-family="Courier New, Courier, monospace">- outputDer : double</text>
<text x="38" y="883" font-size="9.5" fill="#111111" font-family="Courier New, Courier, monospace">+ updateOutput() : double</text>
<text x="38" y="898" font-size="9.5" fill="#111111" font-family="Courier New, Courier, monospace">+ seedOutputDer(v : double) : void</text>
<text x="38" y="913" font-size="9.5" fill="#111111" font-family="Courier New, Courier, monospace">+ computeAndAccumulateInputDer() : void</text>
<text x="38" y="928" font-size="9.5" fill="#111111" font-family="Courier New, Courier, monospace">+ recomputeOutputDer() : void</text>
<text x="38" y="943" font-size="9.5" fill="#111111" font-family="Courier New, Courier, monospace">+ applyBiasUpdate(lr : double) : void</text>
<text x="428" y="790" text-anchor="middle" font-size="11" font-weight="700" fill="#111111" font-family="Arial, Helvetica, sans-serif">Link</text>
<text x="308" y="815" font-size="9.5" fill="#111111" font-family="Courier New, Courier, monospace">- weight : double</text>
<text x="308" y="830" font-size="9.5" fill="#111111" font-family="Courier New, Courier, monospace">- errorDer : double</text>
<text x="308" y="845" font-size="9.5" fill="#111111" font-family="Courier New, Courier, monospace">- accErrorDer : double</text>
<text x="308" y="868" font-size="9.5" fill="#111111" font-family="Courier New, Courier, monospace">+ computeAndAccumulateErrorDer() : void</text>
<text x="308" y="883" font-size="9.5" fill="#111111" font-family="Courier New, Courier, monospace">+ applyWeightUpdate(lr, rr : double) : void</text>
<text x="308" y="898" font-size="9.5" fill="#111111" font-family="Courier New, Courier, monospace">+ getWeight() : double</text>
<text x="308" y="913" font-size="9.5" fill="#111111" font-family="Courier New, Courier, monospace">+ getSource() : Node</text>
<text x="308" y="928" font-size="9.5" fill="#111111" font-family="Courier New, Courier, monospace">+ getDest() : Node</text>
<text x="727" y="790" text-anchor="middle" font-size="11" font-weight="700" fill="#111111" font-family="Arial, Helvetica, sans-serif">NeuralNetwork</text>
<text x="584" y="833" font-size="9.5" fill="#111111" font-family="Courier New, Courier, monospace">+ buildNetwork(shape, activation,</text>
<text x="584" y="848" font-size="9.5" fill="#111111" font-family="Courier New, Courier, monospace">  reg, ids, initZero,</text>
<text x="584" y="863" font-size="9.5" fill="#111111" font-family="Courier New, Courier, monospace">  rng) : List&lt;List&lt;Node&gt;&gt;</text>
<text x="584" y="878" font-size="9.5" fill="#111111" font-family="Courier New, Courier, monospace">+ forwardProp(net, input[]) : double</text>
<text x="584" y="893" font-size="9.5" fill="#111111" font-family="Courier New, Courier, monospace">+ backProp(net, label,</text>
<text x="584" y="908" font-size="9.5" fill="#111111" font-family="Courier New, Courier, monospace">  err : ErrorFunction) : void</text>
<text x="584" y="923" font-size="9.5" fill="#111111" font-family="Courier New, Courier, monospace">+ updateWeights(net,lr,rr) : void</text>
<text x="1012" y="786" text-anchor="middle" font-size="9" font-style="italic" fill="#2E79B5" font-family="Arial, Helvetica, sans-serif">«interface»</text>
<text x="1012" y="802" text-anchor="middle" font-size="11" font-weight="700" font-style="normal" fill="#111111" font-family="Arial, Helvetica, sans-serif">Trainable</text>
<text x="926" y="847" font-size="9.5" fill="#111111" font-family="Courier New, Courier, monospace">+ trainOneEpoch(lr, rr : double,</text>
<text x="926" y="862" font-size="9.5" fill="#111111" font-family="Courier New, Courier, monospace">  batchSize : int) : void</text>
<text x="926" y="877" font-size="9.5" fill="#111111" font-family="Courier New, Courier, monospace">+ getIteration() : int</text>
<text x="926" y="892" font-size="9.5" fill="#111111" font-family="Courier New, Courier, monospace">+ getTrainLoss() : double</text>
<text x="926" y="907" font-size="9.5" fill="#111111" font-family="Courier New, Courier, monospace">+ getTestLoss() : double</text>
<text x="1049" y="1008" text-anchor="middle" font-size="11" font-weight="700" fill="#111111" font-family="Arial, Helvetica, sans-serif">Session</text>
<text x="926" y="1033" font-size="9.5" fill="#111111" font-family="Courier New, Courier, monospace">- id : String</text>
<text x="926" y="1048" font-size="9.5" fill="#111111" font-family="Courier New, Courier, monospace">- iter : int</text>
<text x="926" y="1063" font-size="9.5" fill="#111111" font-family="Courier New, Courier, monospace">- lossTrain : double</text>
<text x="926" y="1078" font-size="9.5" fill="#111111" font-family="Courier New, Courier, monospace">- dataset : DataGenerator</text>
<text x="926" y="1093" font-size="9.5" fill="#111111" font-family="Courier New, Courier, monospace">- activation : ActivationFunction</text>
<text x="926" y="1108" font-size="9.5" fill="#111111" font-family="Courier New, Courier, monospace">- regularization : RegularizationFunction</text>
<text x="926" y="1131" font-size="9.5" fill="#111111" font-family="Courier New, Courier, monospace">+ trainOneEpoch(lr, rr, b) : void</text>
<text x="926" y="1146" font-size="9.5" fill="#111111" font-family="Courier New, Courier, monospace">+ trainOneEpoch() : void</text>
<text x="926" y="1161" font-size="9.5" fill="#111111" font-family="Courier New, Courier, monospace">+ rebuildNetwork() : void</text>
<text x="926" y="1176" font-size="9.5" fill="#111111" font-family="Courier New, Courier, monospace">+ regenerateData() : void</text>
<text x="1334" y="790" text-anchor="middle" font-size="11" font-weight="700" fill="#111111" font-family="Arial, Helvetica, sans-serif">SessionManager</text>
<text x="1221" y="815" font-size="9.5" fill="#111111" font-family="Courier New, Courier, monospace">- sessions : Map&lt;String, Session&gt;</text>
<text x="1221" y="838" font-size="9.5" fill="#111111" font-family="Courier New, Courier, monospace">+ create() : Session</text>
<text x="1221" y="853" font-size="9.5" fill="#111111" font-family="Courier New, Courier, monospace">+ get(id : String) : Session</text>
<text x="1221" y="868" font-size="9.5" fill="#111111" font-family="Courier New, Courier, monospace">+ require(id : String) : Session</text>
<text x="1221" y="883" font-size="9.5" fill="#111111" font-family="Courier New, Courier, monospace">+ remove(id : String) : void</text>
<text x="1599" y="790" text-anchor="middle" font-size="11" font-weight="700" fill="#111111" font-family="Arial, Helvetica, sans-serif">ApiServer</text>
<text x="1496" y="815" font-size="9.5" fill="#111111" font-family="Courier New, Courier, monospace">- port : int</text>
<text x="1496" y="830" font-size="9.5" fill="#111111" font-family="Courier New, Courier, monospace">- manager : SessionManager</text>
<text x="1496" y="853" font-size="9.5" fill="#111111" font-family="Courier New, Courier, monospace">+ start() : void</text>
<text x="1496" y="868" font-size="9.5" fill="#111111" font-family="Courier New, Courier, monospace">+ dispatch(ex : HttpExchange) : void</text>
<text x="1874" y="790" text-anchor="middle" font-size="11" font-weight="700" fill="#111111" font-family="Arial, Helvetica, sans-serif">RequestHandlers</text>
<text x="1751" y="815" font-size="9.5" fill="#111111" font-family="Courier New, Courier, monospace">- manager : SessionManager</text>
<text x="1751" y="838" font-size="9.5" fill="#111111" font-family="Courier New, Courier, monospace">+ handleCreate(ex) : void</text>
<text x="1751" y="853" font-size="9.5" fill="#111111" font-family="Courier New, Courier, monospace">+ handleConfig(ex) : void</text>
<text x="1751" y="868" font-size="9.5" fill="#111111" font-family="Courier New, Courier, monospace">+ handleStep(ex) : void</text>
<text x="1751" y="883" font-size="9.5" fill="#111111" font-family="Courier New, Courier, monospace">+ handleBoundary(ex) : void</text>
</svg>